{
  "accessors": [
    {
      "bufferView": 2,
      "componentType": 5126,
      "count": 977,
      "max": [
        64.89440155029297,
        29.32900047302246,
        43.624298095703125
      ],
      "min": [
        -55.682098388671875,
        -28.166900634765625,
        -1.958899974822998
      ],
      "type": "VEC3"
    },
    {
      "bufferView": 2,
      "byteOffset": 11724,
      "componentType": 5126,
      "count": 977,
      "max": [
        1.0,
        1.0,
        1.0
      ],
      "min": [
        -1.0,
        -1.0,
        -1.0
      ],
      "type": "VEC3"
    },
    {
      "bufferView": 1,
      "componentType": 5126,
      "count": 977,
      "max": [
        0.9811999797821045,
        0.9832000136375427
      ],
      "min": [
        0.018200000748038292,
        0.014800000004470348
      ],
      "type": "VEC2"
    },
    {
      "bufferView": 0,
      "componentType": 5125,
      "count": 3426,
      "type": "SCALAR"
    }
  ],
  "asset": {
    "extras": {
      "author": "slowpoly (https://sketchfab.com/slowpoly)",
      "license": "CC-BY-4.0 (http://creativecommons.org/licenses/by/4.0/)",
      "source": "https://sketchfab.com/3d-models/kia-soul-2023-a29232f2dcba4424a8d62e5bf1474bc1",
      "title": "Kia Soul 2023"
    },
    "generator": "Sketchfab-15.33.0",
    "version": "2.0"
  },
  "bufferViews": [
    {
      "buffer": 0,
      "byteLength": 13704,
      "name": "floatBufferViews",
      "target": 34963
    },
    {
      "buffer": 0,
      "byteLength": 7816,
      "byteOffset": 13704,
      "byteStride": 8,
      "name": "floatBufferViews",
      "target": 34962
    },
    {
      "buffer": 0,
      "byteLength": 23448,
      "byteOffset": 21520,
      "byteStride": 12,
      "name": "floatBufferViews",
      "target": 34962
    }
  ],
  "buffers": [
    {
      "byteLength": 44968,
      "uri": "scene.bin"
    }
  ],
  "images": [
    {
      "uri": "textures/Standard03FF55_baseColor.jpeg"
    }
  ],
  "materials": [
    {
      "doubleSided": true,
      "emissiveFactor": [
        0.3,
        0.3,
        0.3
      ],
      "emissiveTexture": {
        "index": 0
      },
      "name": "Standard03FF55",
      "pbrMetallicRoughness": {
        "baseColorTexture": {
          "index": 0
        },
        "metallicFactor": 0.0,
        "roughnessFactor": 0.6
      }
    }
  ],
  "meshes": [
    {
      "name": "Object_0",
      "primitives": [
        {
          "attributes": {
            "NORMAL": 1,
            "POSITION": 0,
            "TEXCOORD_0": 2
          },
          "indices": 3,
          "material": 0,
          "mode": 4
        }
      ]
    }
  ],
  "nodes": [
    {
      "children": [
        1
      ],
      "matrix": [
        1.0,
        0.0,
        0.0,
        0.0,
        0.0,
        2.220446049250313e-16,
        -1.0,
        0.0,
        0.0,
        1.0,
        2.220446049250313e-16,
        0.0,
        0.0,
        0.0,
        0.0,
        1.0
      ],
      "name": "Sketchfab_model"
    },
    {
      "children": [
        2
      ],
      "name": "3b72e4517bb44edea1fa940527190dff.obj.cleaner.materialmerger.gles"
    },
    {
      "mesh": 0,
      "name": "Object_2"
    }
  ],
  "samplers": [
    {
      "magFilter": 9729,
      "minFilter": 9987,
      "wrapS": 10497,
      "wrapT": 10497
    }
  ],
  "scene": 0,
  "scenes": [
    {
      "name": "Sketchfab_Scene",
      "nodes": [
        0
      ]
    }
  ],
  "textures": [
    {
      "sampler": 0,
      "source": 0
    }
  ]
}
